<?xml version="1.0" encoding="utf-8"?>
<!-- Generator: Adobe Illustrator 23.0.3, SVG Export Plug-In . SVG Version: 6.00 Build 0)  -->
<svg version="1.1" id="Layer_1" xmlns="http://www.w3.org/2000/svg" xmlns:xlink="http://www.w3.org/1999/xlink" x="0px" y="0px"
	 viewBox="0 0 300 300" enable-background="new 0 0 300 300" xml:space="preserve">
<path display="none" fill="none" stroke="#000000" stroke-width="7" stroke-miterlimit="10" d="M259,112.2600098
	c0,48.0499878-49.8099976,87-111.25,87s-111.25-38.9500122-111.25-87C36.5,64.2000122,86.3099976,25.25,147.75,25.25
	S259,64.2000122,259,112.2600098z"/>
<path fill="none" stroke="#000000" stroke-width="7" stroke-miterlimit="10" d="M113.5,196.5
	c-2.8818436,4.019165-7.9720688,10.02005-16,15c-11.6062851,7.1996918-22.8914948,8.2572937-28.3067551,8.4032898
	c3.4085236-2.2866974,9.372612-6.9468079,14.0099106-14.8986359c3.9176331-6.7177887,5.2662888-13.003479,5.7878494-16.8717194
	C82.0765839,184.6294556,60.6402435,172.6662445,48.5,146.5c-1.4209938-3.0627136-16.0433578-35.8725357-2-69
	c22.5717163-53.2453613,96.9974213-54.9422302,104-55c14.9535217-0.1233692,79.096283,1.9615231,102,50
	c15.8977356,33.3440323,1.4339294,66.8200226,0,70c-18.2642975,40.5042572-63.4139709,50.3742065-80,54
	C147.34021,202.000061,125.9760437,199.140152,113.5,196.5z"/>
<g id="Layer_2">
</g>
<g>
</g>
<g>
</g>
<g>
</g>
<g>
</g>
<g>
</g>
<g>
</g>
<g>
</g>
<g>
</g>
<g>
</g>
<g>
</g>
<g>
</g>
</svg>
