<?xml version="1.0" encoding="utf-8"?>
<!-- Generator: Adobe Illustrator 23.0.3, SVG Export Plug-In . SVG Version: 6.00 Build 0)  -->
<svg version="1.1" xmlns="http://www.w3.org/2000/svg" xmlns:xlink="http://www.w3.org/1999/xlink" x="0px" y="0px"
	 viewBox="0 0 300 300" style="enable-background:new 0 0 300 300;" xml:space="preserve">
<style type="text/css">
	.st0{fill:none;stroke:#000000;stroke-width:7;stroke-miterlimit:10;}
	.st1{display:none;}
	.st2{display:inline;fill:none;stroke:#000000;stroke-width:7;stroke-miterlimit:10;}
	.st3{display:inline;}
</style>
<g id="hearth">
	<path class="st0" d="M150.4,83.1c-1.9-1.9-4.6-4.7-8-8c-3.7-3.6-9-8.8-12.3-11.6c-9.3-7.8-19.3-11.1-23.2-12.3
		c-27.1-8.7-51.9,3.1-54.4,4.4C45.5,59,31.6,67.3,22,83.9c-0.9,1.5-14.4,25.7-7.3,54.4c3.5,14.2,10.8,24.1,12.3,26.1
		c3.8,5,7.2,8.1,10.2,10.9c10.3,9.5,19.6,20,29.8,29.8c23,22,45,45,67.5,67.5c5.3,5.3,10.6,10.6,16,16c18.8-19,33.8-34,44.3-44.3
		c15.7-15.5,21.5-20.9,27.5-27.1c2.6-2.7,4.2-4.5,5.9-6.2c34.2-36.4,46.8-43.2,54.4-63.9c3.1-8.5,4-15.7,4.4-20.3
		c1.5-22.7-8.2-39.5-10.2-42.8c-3.2-5.3-12.8-19.8-31.2-28.3c-8.9-4.1-16.6-5.3-20.3-5.8c-5.4-0.8-19-2.6-34.8,2.9
		c-12.1,4.2-19.9,10.7-25.4,15.2C158.3,73.5,153.5,79,150.4,83.1z"/>
</g>
<g id="text" class="st1">
	<path class="st2" d="M108.4,244.9c-3.3,4.6-9.1,11.5-18.3,17.2c-13.3,8.2-26.2,9.4-32.4,9.6c3.9-2.6,10.7-7.9,16-17
		c4.5-7.7,6-14.9,6.6-19.3c-7.9-4-32.4-17.7-46.3-47.6c-1.6-3.5-18.3-41-2.3-78.9C57.6,48,142.7,46,150.7,45.9
		c17.1-0.1,90.4,2.2,116.6,57.2c18.2,38.1,1.6,76.4,0,80c-20.9,46.3-72.5,57.6-91.5,61.7C147.1,251.2,122.7,247.9,108.4,244.9z"/>
</g>
<g id="arrow" class="st1">
	<g class="st3">
		<g>
			<line class="st0" x1="281" y1="34.6" x2="144.2" y2="171.4"/>
			<g>
				<path d="M225,44.4c0.4,1.8,2.3,3,4.1,2.6L280,35.8l-11.3,50.9c-0.4,1.8,0.7,3.7,2.6,4.1c1.8,0.4,3.7-0.7,4.1-2.6L287.7,32
					c0.2-1.1-0.1-2.3-1-3.1c-0.8-0.8-2-1.2-3.1-1l-56.1,12.4c-0.7,0.1-1.2,0.5-1.7,1C225.2,42.1,224.8,43.2,225,44.4z"/>
			</g>
		</g>
	</g>
	<path class="st3" d="M234,239.2c0,9.2-7.5,16.7-16.7,16.7H64.4c-9.2,0-16.7-7.5-16.7-16.7V86.4c0-9.2,7.5-16.7,16.7-16.7h131v-8.4
		h-131c-13.8,0-25.1,11.3-25.1,25.1v152.9c0,13.8,11.3,25.1,25.1,25.1h152.9c13.8,0,25.1-11.3,25.1-25.1V133.1H234V239.2z"/>
</g>
</svg>
