<?xml version="1.0" encoding="utf-8"?>
<!-- Generator: Adobe Illustrator 23.0.3, SVG Export Plug-In . SVG Version: 6.00 Build 0)  -->
<svg version="1.1" id="Layer_1" xmlns="http://www.w3.org/2000/svg" xmlns:xlink="http://www.w3.org/1999/xlink" x="0px" y="0px"
	 viewBox="0 0 300 300" enable-background="new 0 0 300 300" xml:space="preserve">
<path fill="none" stroke="#000000" stroke-width="7" stroke-miterlimit="10" d="M150.4112091,83.1367874
	c-1.8757172-1.9196854-4.6164551-4.6928406-7.9823151-7.9823151c-3.6984711-3.6146011-8.9543304-8.751236-12.3363037-11.6106453
	c-9.2822571-7.8479156-19.253685-11.0587311-23.221283-12.3363075c-27.1282883-8.7353287-51.9462624,3.128746-54.4248772,4.3539925
	c-6.9885597,3.4546585-20.8522873,11.7159004-30.4779339,28.3009377
	c-0.865448,1.4911499-14.4283514,25.6919022-7.2566509,54.4248734
	c3.5418682,14.1902008,10.7879333,24.0653076,12.3363056,26.1239471c3.7697468,5.0121613,7.1748905,8.1113892,10.1593113,10.8849792
	c10.2736282,9.5479126,19.6321106,20.0417633,29.7522697,29.7522736
	c22.9553604,22.0262604,44.9912338,44.9912262,67.4868469,67.4868469
	c5.321579,5.3215332,10.6430664,10.6430969,15.9646301,15.9646301
	c18.7797699-19.0317078,33.8483124-33.9953461,44.2655792-44.265564
	c15.7391815-15.5170288,21.4643402-20.9152679,27.4919128-27.1433563c2.6485138-2.7366028,4.2432556-4.4844666,5.8886719-6.2372437
	c34.1789856-36.4099274,46.8480225-43.159668,54.4248962-63.8585205c3.1065674-8.4867096,4.0432434-15.7233429,4.3539734-20.3186264
	c1.5358276-22.7147675-8.1871033-39.5231247-10.1593018-42.8142395
	c-3.1928711-5.3279953-12.8128967-19.8228302-31.203598-28.3009377c-8.9174805-4.1109657-16.5504303-5.2644157-20.318634-5.8053207
	c-5.4176788-0.7776833-18.9835052-2.5669327-34.8319092,2.9026604
	c-12.0939484,4.1738586-19.9416199,10.6504974-25.3982849,15.2389679
	C158.2802277,73.4849167,153.5399323,79.0270386,150.4112091,83.1367874z"/>
</svg>
